<svg width="32" height="30" viewBox="0 0 32 30" fill="none" xmlns="http://www.w3.org/2000/svg">
<path d="M19.1612 20.1407C18.4065 20.8968 17.4012 21.3128 16.3331 21.3128C15.2652 21.3128 14.2599 20.8968 13.5052 20.1407L7.83854 14.4742C7.08269 13.7193 6.66668 12.7142 6.66668 11.6461C6.66668 10.578 7.08269 9.5729 7.83854 8.81827C8.59317 8.06217 9.59853 7.64616 10.6666 7.64616C11.7345 7.64616 12.7399 8.06217 13.4945 8.81827L16.3331 11.6554L24.1692 3.81954C21.6091 1.63695 18.2945 0.312988 14.6666 0.312988C6.56658 0.312988 0 6.87957 0 14.9793C0 23.0794 6.56658 29.6459 14.6666 29.6459C22.7664 29.6459 29.3329 23.0794 29.3329 14.9793C29.3329 13.4635 29.1025 12.0021 28.6757 10.6261L19.1612 20.1407Z" fill="url(#paint0_linear)"/>
<path d="M16.3332 18.6456C15.9919 18.6456 15.6506 18.515 15.3906 18.255L9.72412 12.5883C9.20264 12.0671 9.20264 11.2243 9.72412 10.7031C10.2454 10.1816 11.0879 10.1816 11.6094 10.7031L16.3332 15.4269L29.7239 2.03643C30.2451 1.5152 31.0877 1.5152 31.6091 2.03643C32.1304 2.55791 32.1304 3.40043 31.6091 3.92191L17.2758 18.255C17.016 18.515 16.6745 18.6456 16.3332 18.6456Z" fill="url(#paint1_linear)"/>
<defs>
<linearGradient id="paint0_linear" x1="14.6665" y1="0.312988" x2="14.6665" y2="29.6459" gradientUnits="userSpaceOnUse">
<stop stop-color="#D6B87A"/>
<stop offset="1" stop-color="#F0C757"/>
</linearGradient>
<linearGradient id="paint1_linear" x1="20.6665" y1="1.64551" x2="20.6665" y2="18.6456" gradientUnits="userSpaceOnUse">
<stop stop-color="#D6B87A"/>
<stop offset="1" stop-color="#F0C757"/>
</linearGradient>
</defs>
</svg>
