<svg width="32" height="31" viewBox="0 0 32 31" fill="none" xmlns="http://www.w3.org/2000/svg">
<path d="M10.6169 10.3606L16.0826 16.8451C16.1299 16.9009 16.2005 16.9339 16.2746 16.9339C16.3495 16.9339 16.4201 16.9024 16.4671 16.8463L21.9328 10.3601C21.9933 10.2883 22.0057 10.1933 21.9646 10.1097C21.9234 10.0258 21.8361 9.98123 21.7406 9.98123H19.8988L19.8988 4.46639C19.8988 4.33353 19.6491 4.21371 19.5122 4.21371L13.0688 4.21371C12.9316 4.21371 12.9529 4.33353 12.9529 4.46639L12.9529 9.98123H10.8092C10.7132 9.98123 10.6261 10.0258 10.5852 10.1097C10.5443 10.1933 10.556 10.2885 10.6169 10.3606Z" fill="#D6B87A"/>
<path d="M31.5881 18.7411C31.5881 18.7409 31.6198 18.7409 31.6193 18.7406L27.491 14.843C26.9247 14.3191 26.2821 14.05 25.6533 14.05H21.2096C20.9355 14.05 20.7136 14.2653 20.7136 14.5307C20.7136 14.7962 20.9355 15.0115 21.2096 15.0115H25.6533C26.1561 15.0115 26.6014 15.3456 26.818 15.5461L29.8199 18.3757H20.4662C20.1932 18.3757 19.9717 18.5785 19.9702 18.8427C19.9618 20.8216 18.2932 22.4252 16.2513 22.4252C14.2094 22.4252 12.5408 20.8245 12.5322 18.8457C12.5309 18.5814 12.3092 18.3757 12.0359 18.3757H2.44269L5.44106 15.5493C5.66151 15.3456 6.10697 15.0115 6.60983 15.0115H11.292C11.5661 15.0115 11.7883 14.7962 11.7883 14.5307C11.7883 14.2653 11.5661 14.05 11.292 14.05H6.60958C5.98075 14.05 5.3222 14.3191 4.75204 14.8464L0.620957 18.6813C0.281399 18.9461 0 19.3409 0 19.7946V25.3218C0 26.1169 0.794927 26.7864 1.61576 26.7864H30.639C31.4596 26.7864 32 26.1169 32 25.3218V19.7946C32.0003 19.3786 31.8801 19.0041 31.5881 18.7411Z" fill="#D6B87A"/>
</svg>
