<svg width="31" height="29" viewBox="0 0 31 29" fill="none" xmlns="http://www.w3.org/2000/svg">
<path d="M30.9943 9.59524C30.9432 8.68316 29.8917 7.97044 27.7889 7.42671C27.8597 7.26679 27.8995 7.10048 27.9 6.92776V3.19841H27.8912C27.7062 0.0916878 15.3672 0 13.95 0C12.5328 0 0.19375 0.0916878 0.00878333 3.19841H0V3.26771V6.92936C0.00258333 7.94219 1.26945 8.73487 3.15425 9.32497C3.12842 9.41346 3.11292 9.50355 3.10775 9.59524H3.1V9.66454V13.3198C1.0695 13.8593 0.0552833 14.5618 0.00516667 15.459H0V15.5283V19.1899C0.00155 19.8952 0.617933 20.4933 1.62647 20.9917C1.58875 21.0994 1.56447 21.2097 1.55775 21.3228H1.55V21.392V25.0537C1.55413 26.8267 5.42345 27.9275 9.72263 28.4414C9.75415 28.4477 9.78308 28.4611 9.81667 28.4611C9.82648 28.4611 9.83475 28.4557 9.84457 28.4552C10.6733 28.5517 11.5155 28.6269 12.3488 28.6807C12.3664 28.6828 12.3819 28.6914 12.4 28.6914C12.4098 28.6914 12.4176 28.686 12.4269 28.6855C13.485 28.7521 14.5261 28.7857 15.5 28.7857C16.4739 28.7857 17.515 28.7521 18.5731 28.6855C18.5824 28.686 18.5907 28.6914 18.6 28.6914C18.6181 28.6914 18.6336 28.6823 18.6511 28.6807C19.4845 28.6269 20.3267 28.5522 21.1554 28.4552C21.1652 28.4552 21.1735 28.4605 21.1833 28.4605C21.2169 28.4605 21.2458 28.4472 21.2774 28.4408C25.5765 27.9269 29.4453 26.8256 29.45 25.0521V21.3228H29.4417C29.4056 20.6692 28.8656 20.1239 27.7992 19.6681C27.8643 19.514 27.9 19.3541 27.9 19.1883V15.7042C29.7548 15.1157 30.9974 14.3284 31 13.3246V9.59524H30.9943ZM3.61667 8.35532V5.78007C4.09923 5.9144 4.61797 6.037 5.16667 6.14842V8.75032C5.10312 8.73646 5.0375 8.7226 4.9755 8.70875C4.70063 8.64638 4.43248 8.58134 4.17622 8.51258C3.98092 8.46087 3.79543 8.40809 3.61667 8.35532ZM26.7483 7.18683L26.7339 7.18363L26.5458 7.33449C26.273 7.55359 25.854 7.77534 25.3167 7.98964V5.45383C25.931 5.23314 26.4538 4.98846 26.8667 4.72032V6.92616C26.8667 7.00719 26.8253 7.09461 26.7483 7.18683ZM13.0071 19.1814C13.1492 19.1841 13.2912 19.1862 13.4333 19.1878V21.8521C13.3331 21.851 13.2329 21.851 13.1332 21.8494C13.0877 21.8489 13.0438 21.8473 12.9988 21.8468C12.7622 21.8425 12.5266 21.8366 12.2925 21.8292C12.2636 21.8281 12.2347 21.827 12.2057 21.826C11.9241 21.8164 11.6446 21.8041 11.3672 21.7903V19.1292C11.8849 19.1542 12.4052 19.1708 12.9254 19.1803C12.9523 19.1803 12.9797 19.1809 13.0071 19.1814ZM14.9751 19.1798C15.4953 19.1697 16.0156 19.1532 16.5333 19.1286V21.7903C16.4228 21.7961 16.3117 21.8014 16.1996 21.8062C15.8896 21.8196 15.5749 21.8308 15.2551 21.8388C15.1797 21.8409 15.1037 21.842 15.0278 21.8436C14.8433 21.8473 14.6542 21.8484 14.4672 21.85V19.1873C14.6093 19.1857 14.7513 19.1835 14.8934 19.1809C14.9203 19.1809 14.9477 19.1803 14.9751 19.1798ZM17.9108 21.7002C17.7971 21.7092 17.6824 21.7183 17.5667 21.7268V19.0684C18.0906 19.0327 18.6083 18.99 19.1167 18.9389V21.5861C18.7974 21.6207 18.4708 21.6533 18.1355 21.6815C18.0606 21.6884 17.9857 21.6943 17.9108 21.7002ZM20.15 18.8237C20.6827 18.7576 21.1999 18.6825 21.7 18.5988V21.2161C21.2133 21.3046 20.6961 21.3862 20.15 21.4603V18.8237ZM9.05148 21.6149C8.99878 21.6095 8.9466 21.6037 8.89442 21.5983C8.85722 21.5946 8.82053 21.5898 8.78333 21.5861V18.9394C9.29173 18.99 9.80943 19.0332 10.3333 19.0689V21.7252C9.89933 21.6932 9.4705 21.657 9.05148 21.6149ZM7.75 18.8237V21.4603C7.20388 21.3862 6.6867 21.3046 6.2 21.2161V18.5988C6.70013 18.6825 7.21732 18.7582 7.75 18.8237ZM22.7333 21.0104V18.4085C23.282 18.2971 23.8008 18.1744 24.2833 18.0401V20.6154C23.823 20.7524 23.3048 20.8851 22.7333 21.0104ZM13.0071 6.92083C13.1492 6.9235 13.2912 6.92563 13.4333 6.92723V9.58884C12.7379 9.58191 12.0466 9.56325 11.3667 9.52807V6.86859C11.8844 6.89365 12.4046 6.91017 12.9249 6.91977C12.9523 6.91977 12.9797 6.9203 13.0071 6.92083ZM14.9751 6.91923C15.4953 6.9091 16.0156 6.89258 16.5333 6.86806V9.52754C16.4455 9.5318 16.3613 9.5382 16.2729 9.54246C16.2657 9.543 16.2585 9.543 16.2507 9.54353C15.904 9.55952 15.5506 9.57125 15.1926 9.57978C15.1368 9.58138 15.081 9.58191 15.0252 9.58351C14.8412 9.58724 14.6532 9.58778 14.4667 9.58991V6.92723C14.6087 6.92563 14.7508 6.9235 14.8929 6.92083C14.9203 6.9203 14.9477 6.91977 14.9751 6.91923ZM18.0751 13.3161C18.5954 13.3059 19.1156 13.2894 19.6333 13.2649V15.9238C18.9544 15.9585 18.2642 15.9777 17.5667 15.9851V13.3241C17.7087 13.3225 17.8508 13.3203 17.9929 13.3177C18.0203 13.3171 18.0477 13.3166 18.0751 13.3161ZM13.096 15.8369C12.7653 15.8103 12.4424 15.781 12.1272 15.7485C12.0595 15.7415 11.9918 15.7341 11.9247 15.7271C11.9107 15.7255 11.8973 15.7234 11.8833 15.7223V13.0751C12.3917 13.1258 12.9094 13.1689 13.4333 13.2046V15.8615C13.3915 15.8583 13.347 15.8561 13.3052 15.8529C13.2349 15.8476 13.1652 15.8423 13.096 15.8369ZM9.89158 15.4547C9.68698 15.4211 9.49478 15.3849 9.3 15.3497V12.7355C9.80013 12.8192 10.3173 12.8944 10.85 12.9605V15.5971C10.5338 15.5539 10.2243 15.5091 9.92723 15.4611C9.91535 15.4585 9.90347 15.4563 9.89158 15.4547ZM16.1071 13.3177C16.2492 13.3203 16.3912 13.3225 16.5333 13.3241V15.9857C16.2817 15.983 16.028 15.9819 15.7826 15.9761C15.7449 15.975 15.7056 15.9745 15.6679 15.9739C15.2794 15.9638 14.8996 15.9484 14.5266 15.9297C14.5064 15.9286 14.4863 15.9276 14.4667 15.927V13.2654C14.9844 13.2905 15.5047 13.307 16.0249 13.3166C16.0523 13.3166 16.0797 13.3171 16.1071 13.3177ZM21.3084 15.8114C21.2898 15.813 21.2717 15.8146 21.2531 15.8161C21.0604 15.8327 20.8615 15.8433 20.6661 15.8577V13.2041C21.1901 13.1684 21.7078 13.1258 22.2162 13.0746V15.7191C21.9165 15.7522 21.6168 15.7847 21.3084 15.8114ZM8.78333 9.32337V6.67829C9.29173 6.72893 9.80943 6.77211 10.3333 6.80782V9.46144C9.80737 9.42252 9.28863 9.37828 8.78333 9.32337ZM19.1167 9.32231C18.6176 9.37668 18.1009 9.42412 17.5667 9.46357V6.80782C18.0906 6.77211 18.6083 6.72946 19.1167 6.67829V9.32231ZM20.15 6.56314C20.6827 6.49704 21.1999 6.42188 21.7 6.33819V8.95129C21.2102 9.04031 20.6946 9.12241 20.15 9.1965V6.56314ZM22.7333 8.74606V6.14842C23.282 6.037 23.8008 5.9144 24.2833 5.78007V8.34946C23.8204 8.48859 23.2991 8.62132 22.7333 8.74606ZM7.75 6.56314V9.19704C7.6477 9.18318 7.54127 9.17198 7.44 9.15759C7.37387 9.14799 7.31083 9.13787 7.24573 9.12827C6.9471 9.08403 6.65518 9.03658 6.36895 8.98701C6.3116 8.97688 6.25632 8.96622 6.2 8.95609V6.33872C6.70013 6.42188 7.21732 6.49758 7.75 6.56314ZM8.26667 12.5447V15.1424C7.69575 15.016 7.17805 14.8817 6.71667 14.742V12.1764C7.19923 12.3107 7.71797 12.4338 8.26667 12.5447ZM24.7519 15.3614C24.5251 15.402 24.2962 15.4419 24.0612 15.4787C23.9263 15.5 23.7884 15.5203 23.6499 15.5406C23.5192 15.5597 23.3833 15.5763 23.2505 15.5939V12.96C23.7832 12.8939 24.3004 12.8187 24.8005 12.735V15.3524C24.784 15.3556 24.768 15.3588 24.7519 15.3614ZM5.68333 11.8507V14.3833C4.87113 14.0597 4.34723 13.7292 4.17673 13.4349L4.14212 13.3752C4.13902 13.3587 4.13385 13.3411 4.13333 13.3246V11.1171C4.54615 11.3853 5.06902 11.63 5.68333 11.8507ZM5.16667 18.4085V21.0104C4.69237 20.9064 4.25475 20.7971 3.8564 20.6852C3.79337 20.6671 3.72827 20.6495 3.66678 20.6308C3.64973 20.6255 3.63372 20.6207 3.61667 20.6159V18.0406C4.09923 18.1744 4.61797 18.2976 5.16667 18.4085ZM6.71667 24.2722V26.8741C6.14523 26.7489 5.62702 26.6161 5.16667 26.4791V23.9039C5.64923 24.0382 6.16797 24.1613 6.71667 24.2722ZM7.75 24.4631C8.25013 24.5468 8.76732 24.6219 9.3 24.688V27.3246C8.75388 27.2505 8.2367 27.1689 7.75 27.0804V24.4631ZM10.3333 24.8026C10.8417 24.8533 11.3594 24.8964 11.8833 24.9322V27.5906C11.3465 27.5517 10.8298 27.5042 10.3333 27.4504V24.8026ZM12.9167 24.9924C13.4344 25.0175 13.9546 25.034 14.4749 25.0436C14.5023 25.0441 14.5297 25.0446 14.5566 25.0452C14.6986 25.0478 14.8407 25.05 14.9828 25.0516V27.7164C14.2688 27.7094 13.5795 27.6881 12.9162 27.6545V24.9924H12.9167ZM16.0167 25.051C16.1587 25.0494 16.3008 25.0473 16.4429 25.0446C16.4703 25.0441 16.4977 25.0436 16.5251 25.043C17.0453 25.0329 17.5656 25.0164 18.0833 24.9919V27.6535C17.4199 27.6871 16.7307 27.7084 16.0167 27.7153V25.051ZM19.1167 24.9322C19.6406 24.8964 20.1583 24.8538 20.6667 24.8026V27.4498C20.1701 27.5037 19.6535 27.5511 19.1167 27.59V24.9322ZM21.7 24.6875C22.2327 24.6214 22.7499 24.5462 23.25 24.4625V27.0799C22.7633 27.1684 22.2461 27.2499 21.7 27.324V24.6875ZM24.2833 24.2722C24.832 24.1608 25.3508 24.0382 25.8333 23.9039V26.4791C25.373 26.6161 24.8548 26.7489 24.2833 26.8741V24.2722ZM26.8109 19.3616L26.6347 19.521C26.3634 19.7678 25.9113 20.0167 25.3167 20.2566V17.7149C25.931 17.4942 26.4538 17.2496 26.8667 16.9814V19.1873C26.8667 19.2422 26.847 19.3008 26.8109 19.3616ZM27.1581 14.8172C26.9008 14.8913 26.6285 14.9606 26.3505 15.0283C26.2219 15.0592 26.0906 15.0901 25.9563 15.12C25.9165 15.129 25.8741 15.137 25.8338 15.1461V12.5452C26.3825 12.4338 26.9013 12.3112 27.3838 12.1769V14.7521C27.3094 14.7735 27.2345 14.7953 27.1581 14.8172ZM1.03333 6.92776V4.72032C1.44615 4.98846 1.96902 5.23314 2.58333 5.45383V8.00616C1.57842 7.61755 1.03437 7.22788 1.03333 6.92776ZM1.03333 19.1883V16.9809C1.44615 17.249 1.96902 17.4937 2.58333 17.7144V20.2566L2.28832 20.1383L2.28212 20.1447C1.47095 19.7976 1.03437 19.457 1.03333 19.1883ZM2.58333 25.0521V22.8447C2.99615 23.1128 3.51902 23.3575 4.13333 23.5782V26.1305C3.12842 25.7419 2.58437 25.3522 2.58333 25.0521ZM26.8667 26.1305V23.5787C27.481 23.358 28.0038 23.1133 28.4167 22.8452V25.051C28.4161 25.3512 27.8716 25.7414 26.8667 26.1305ZM28.4167 14.403V11.8512C29.031 11.6305 29.5538 11.3858 29.9667 11.1177V13.3235C29.9661 13.6236 29.4216 14.0138 28.4167 14.403Z" fill="#D6B87A"/>
</svg>
