<svg width="14" height="15" viewBox="0 0 14 15" fill="none" xmlns="http://www.w3.org/2000/svg">
<path d="M11.5659 13.6112L9.19293 14.6284C8.62095 14.8743 8.00479 15.0007 7.38222 15H2.16288V11.0599C2.62269 10.6364 3.22548 10.402 3.85064 10.4038H4.06281C4.38073 10.4036 4.69575 10.4643 4.99085 10.5826L5.84746 10.9253C5.87943 10.938 5.91352 10.9445 5.94793 10.9446H7.57009C7.7135 10.9446 7.85103 11.0015 7.95244 11.1029C8.05384 11.2043 8.11081 11.3419 8.11081 11.4853C8.11081 11.6287 8.05384 11.7662 7.95244 11.8676C7.85103 11.969 7.7135 12.026 7.57009 12.026H5.94793C5.883 12.026 5.82021 12.0493 5.77106 12.0917C5.72191 12.1341 5.68967 12.1928 5.68024 12.2571C5.6708 12.3213 5.68481 12.3868 5.71969 12.4416C5.75457 12.4964 5.80799 12.5367 5.8702 12.5554L8.41791 13.3194C8.56996 13.3657 8.73234 13.3658 8.88445 13.3197L11.3901 12.568C11.512 12.5766 11.6274 12.6258 11.7178 12.7079C11.8082 12.7899 11.8684 12.9 11.8887 13.0204C11.909 13.1408 11.8882 13.2646 11.8296 13.3717C11.7711 13.4789 11.6782 13.5632 11.5659 13.6112H11.5659ZM11.8959 8.27158C11.8223 8.28548 11.7501 8.30563 11.68 8.3318C11.4692 8.41414 11.2824 8.54791 11.1365 8.72093C10.9906 8.89395 10.8904 9.10072 10.8448 9.3224H9.19225V6.61879H10.8432C10.8577 6.69243 10.8785 6.76468 10.9054 6.83478C10.9876 7.04563 11.1213 7.23254 11.2943 7.37845C11.4674 7.52436 11.6741 7.62463 11.8959 7.67013V8.27158ZM8.65153 10.4038H7.02937V8.50456C7.26153 8.68433 7.54683 8.78187 7.84045 8.78187C8.13407 8.78187 8.41937 8.68433 8.65153 8.50456V10.4038ZM12.9773 11.4853H9.19225V10.9446H12.9773V11.4853ZM8.65153 11.4853V12.8134C8.62519 12.8133 8.59902 12.8093 8.5738 12.8017L7.74386 12.5528C7.99711 12.5112 8.22739 12.3811 8.39363 12.1856C8.55987 11.9901 8.65127 11.7419 8.65153 11.4853C8.65045 11.2949 8.59852 11.1082 8.50111 10.9446H8.65153V11.4853ZM7.84045 8.24096C7.68003 8.24096 7.52322 8.19339 7.38984 8.10426C7.25646 8.01514 7.1525 7.88847 7.09111 7.74026C7.02972 7.59206 7.01366 7.42898 7.04495 7.27164C7.07625 7.11431 7.1535 6.96979 7.26693 6.85635C7.38036 6.74292 7.52488 6.66568 7.68222 6.63438C7.83955 6.60308 8.00263 6.61915 8.15084 6.68053C8.29904 6.74192 8.42572 6.84588 8.51484 6.97926C8.60396 7.11265 8.65153 7.26946 8.65153 7.42988C8.65129 7.64491 8.56576 7.85108 8.4137 8.00313C8.26165 8.15519 8.05549 8.24072 7.84045 8.24096ZM6.48865 9.3224H4.29697C4.28244 9.24877 4.26165 9.17651 4.23482 9.10641C4.15257 8.89556 4.01884 8.70866 3.84583 8.56275C3.67282 8.41684 3.46603 8.31656 3.24432 8.27107V7.67144C3.31791 7.65694 3.39012 7.63618 3.46017 7.6094C3.67097 7.52706 3.85781 7.39328 4.00369 7.22026C4.14956 7.04724 4.24983 6.84048 4.29535 6.61879H6.48865V9.3224ZM6.48865 9.86312V10.4038H5.99994L5.19163 10.0804C4.83269 9.93663 4.44954 9.86287 4.06287 9.86312H6.48865ZM12.9773 12.5667H12.2847C12.1901 12.4028 12.0542 12.2667 11.8904 12.1718C11.7267 12.0769 11.541 12.0266 11.3518 12.026C11.3173 12.026 11.2831 12.0325 11.251 12.0453L9.19225 12.6629V12.026H12.9773V12.5667ZM12.9773 10.4038H9.19225V9.86312H11.0874C11.1591 9.86312 11.2279 9.83463 11.2786 9.78393C11.3293 9.73323 11.3578 9.66446 11.3578 9.59276C11.3567 9.4863 11.3769 9.38069 11.4171 9.28212C11.4574 9.18356 11.5169 9.09401 11.5922 9.01873C11.6675 8.94344 11.757 8.88393 11.8556 8.84368C11.9541 8.80343 12.0598 8.78325 12.1662 8.78431C12.2379 8.78431 12.3067 8.75583 12.3574 8.70513C12.4081 8.65442 12.4366 8.58566 12.4366 8.51395C12.4366 8.51348 12.4363 8.51311 12.4363 8.51264C12.4363 8.51216 12.4366 8.51179 12.4366 8.51132V7.42724C12.4366 7.35554 12.4081 7.28677 12.3574 7.23607C12.3067 7.18536 12.2379 7.15688 12.1662 7.15688C12.0598 7.15785 11.9542 7.13761 11.8557 7.09733C11.7572 7.05704 11.6677 6.99753 11.5924 6.92226C11.5171 6.847 11.4576 6.75749 11.4173 6.65896C11.377 6.56044 11.3568 6.45487 11.3578 6.34843C11.3578 6.27673 11.3293 6.20796 11.2786 6.15726C11.2279 6.10656 11.1591 6.07807 11.0874 6.07807H9.19225V5.53735H12.9773V10.4038ZM8.65153 5.53735V6.35536C8.41937 6.17559 8.13407 6.07805 7.84045 6.07805C7.54683 6.07805 7.26153 6.17559 7.02937 6.35536V5.53735H8.65153ZM6.48865 5.53735V6.07807H4.05277C3.98107 6.07807 3.9123 6.10656 3.8616 6.15726C3.81089 6.20796 3.78241 6.27673 3.78241 6.34843C3.78347 6.4549 3.76329 6.5605 3.72304 6.65907C3.68279 6.75764 3.62328 6.84718 3.548 6.92247C3.47271 6.99775 3.38317 7.05726 3.2846 7.09751C3.18603 7.13776 3.08043 7.15795 2.97396 7.15688C2.90226 7.15688 2.83349 7.18536 2.78279 7.23607C2.73209 7.28677 2.7036 7.35554 2.7036 7.42724V8.51395C2.7036 8.58566 2.73209 8.65442 2.78279 8.70513C2.83349 8.75583 2.90226 8.78431 2.97396 8.78431C3.0804 8.78334 3.18597 8.80359 3.28449 8.84387C3.38302 8.88415 3.47253 8.94366 3.54779 9.01893C3.62306 9.0942 3.68257 9.18371 3.72285 9.28223C3.76314 9.38076 3.78338 9.48632 3.78241 9.59276C3.78241 9.66446 3.81089 9.73323 3.8616 9.78393C3.9123 9.83463 3.98107 9.86312 4.05277 9.86312H3.85064C3.24976 9.86157 2.66209 10.0394 2.16288 10.3739V5.53735H6.48865ZM0 11.2149H1.62216V15H0V11.2149Z" fill="#979797"/>
<path d="M7.57019 0L8.86694 1.48198H8.38127V3.91522H6.75911V1.48198H6.27344L7.57019 0Z" fill="#979797"/>
<path d="M11.8954 1.08142L13.1921 2.5634H12.7065V3.9152H11.0843V2.5634H10.5986L11.8954 1.08142Z" fill="#979797"/>
<path d="M3.24402 1.08142L4.54077 2.5634H4.0551V3.9152H2.43293V2.5634H1.94727L3.24402 1.08142Z" fill="#979797"/>
</svg>
