<svg width="16" height="15" viewBox="0 0 16 15" fill="none" xmlns="http://www.w3.org/2000/svg">
<path d="M5.95562 9.90329H7.3585C7.92347 9.90516 8.44681 10.2009 8.73993 10.6839L8.76407 10.7241C8.95433 11.0436 8.99077 11.4316 8.86332 11.7809H9.01621C9.10276 11.7813 9.18881 11.7677 9.27104 11.7407L12.5731 10.6383C12.4931 10.3961 12.2835 10.2197 12.0312 10.1823C11.8995 10.1631 11.8022 10.0497 11.8032 9.91672V9.89258C11.7981 9.65268 11.6867 9.42745 11.4991 9.27773C11.3116 9.12802 11.0673 9.06928 10.8322 9.11737C10.7131 9.14189 10.5922 9.08366 10.5371 8.97519C10.2405 8.39189 9.64115 8.0248 8.98672 8.02562C8.86869 8.02501 8.75093 8.03668 8.63533 8.06051C8.55348 8.07685 8.46861 8.05514 8.40465 8.00151C8.34213 7.9472 8.30842 7.8669 8.31343 7.78423C8.31343 7.77619 8.3161 7.74934 8.3161 7.744C8.31335 7.57337 8.22847 7.41456 8.08811 7.31751C8.3898 6.16287 9.00864 5.11569 9.87456 4.29448C9.74674 4.16113 9.63592 4.01247 9.54465 3.85191C10.1027 3.29981 10.7281 2.82036 11.4062 2.42488C11.5366 2.35435 11.6995 2.40226 11.771 2.53217C11.8415 2.66261 11.7936 2.8255 11.6637 2.89697C11.0112 3.28617 10.4102 3.75568 9.87456 4.29448C9.87993 4.30252 9.88797 4.30788 9.89334 4.31592C10.3635 4.79772 11.0183 5.05378 11.6905 5.0187C12.2298 4.99555 12.731 4.73417 13.0585 4.30518C13.9572 3.12226 14.6948 0.861025 14.9416 0.040223C14.7002 0.0214464 14.3327 0 13.8955 0C12.6803 0 10.9368 0.16899 9.90945 1.03808C9.48366 1.40566 9.23164 1.93505 9.21471 2.49729C9.1945 2.97093 9.30889 3.44058 9.54465 3.85188C8.55979 4.77214 7.86679 5.96134 7.55166 7.27189C7.42697 7.33203 7.33004 7.43759 7.28075 7.56695C7.25165 7.64182 7.19068 7.69985 7.11443 7.7252C7.03833 7.7516 6.95433 7.74172 6.88644 7.69838C6.2884 7.3171 5.49659 7.47028 5.08388 8.0471C5.0081 8.15199 4.86836 8.18804 4.75128 8.13294C4.60854 8.06271 4.45167 8.02601 4.2926 8.02565C3.79405 8.02736 3.3621 8.37158 3.24915 8.85719C3.74083 8.91974 4.20578 9.11649 4.59302 9.42586C4.98011 9.7345 5.46047 9.90282 5.95562 9.90329ZM8.43683 8.71769C8.80899 8.47257 9.30223 8.523 9.61709 8.83839C9.76217 8.981 9.85558 9.16789 9.88263 9.3695C9.90331 9.51523 9.8028 9.65042 9.65731 9.6726C9.6439 9.6726 9.6305 9.67527 9.61709 9.67527C9.4838 9.67433 9.37109 9.57643 9.35155 9.44458C9.3409 9.358 9.30117 9.27764 9.23889 9.21659C9.10299 9.08234 8.89184 9.06113 8.73192 9.16563C8.60823 9.2464 8.44252 9.21198 8.36128 9.08862C8.27999 8.96525 8.31379 8.7994 8.43683 8.71769ZM5.38428 8.77669C5.47453 8.34013 5.85854 8.02665 6.30434 8.02562C6.50756 8.02498 6.70542 8.09093 6.86763 8.21339C6.9443 8.27089 6.98446 8.36492 6.97302 8.46007C6.96155 8.55521 6.9002 8.63701 6.81207 8.67465C6.72393 8.71229 6.62242 8.70006 6.54576 8.64255C6.47652 8.58954 6.39156 8.5612 6.30434 8.56208C6.11308 8.56193 5.94817 8.69654 5.91003 8.88395C5.88415 9.00861 5.77448 9.09812 5.64715 9.09853C5.62917 9.09806 5.61124 9.09627 5.59349 9.09316C5.44847 9.06336 5.35491 8.92183 5.38428 8.77669Z" fill="#979797"/>
<path d="M1.20707 8.83057H0.670589C0.30025 8.83057 0 9.13079 0 9.50116V14.3294C0 14.6998 0.30025 15 0.670589 15H1.20707C1.57744 15 1.87766 14.6998 1.87766 14.3294V9.50116C1.87766 9.13079 1.57744 8.83057 1.20707 8.83057Z" fill="#979797"/>
<path d="M14.9285 10.7592C14.8091 10.5973 14.5993 10.5302 14.4081 10.5929L13.0401 11.0489C12.9944 11.0879 12.9365 11.1097 12.8764 11.1106C12.8711 11.1106 12.8684 11.1079 12.863 11.1079L9.44032 12.2479C9.30372 12.2939 9.1606 12.3174 9.01649 12.3177H6.63453C6.21068 12.3166 5.7961 12.4418 5.44357 12.6771L5.24506 12.8085C5.16553 12.8612 5.0639 12.8675 4.9785 12.825C4.89309 12.7825 4.83685 12.6976 4.83095 12.6023C4.82506 12.5071 4.87044 12.4159 4.95001 12.3633L5.14581 12.2318C5.5863 11.9371 6.10456 11.7803 6.63453 11.7812H8.26276C8.43333 11.5532 8.44924 11.2448 8.30298 11.0006L8.27884 10.9604C8.08435 10.6379 7.7354 10.4405 7.35878 10.44H5.95591C5.33965 10.4394 4.74191 10.2294 4.26064 9.84452C3.87349 9.53585 3.39313 9.36753 2.89799 9.36707H2.40179C2.40892 9.41145 2.41338 9.45625 2.41519 9.50117V14.3294C2.41384 14.4669 2.38844 14.6031 2.34009 14.7318H8.93335C9.22841 14.7319 9.51786 14.6512 9.77026 14.4984L14.797 11.4378C14.9104 11.3697 14.9894 11.2566 15.0143 11.1267C15.0396 10.9976 15.0083 10.8638 14.9285 10.7592Z" fill="#979797"/>
<path d="M8.73625 3.19481C8.6879 2.95661 8.66898 2.71336 8.67992 2.47056C8.6943 2.1265 8.77539 1.78853 8.91865 1.4754C8.40288 1.34443 7.86983 1.29464 7.33875 1.32785C7.52771 1.90209 7.80361 2.44398 8.15688 2.9346C8.30463 3.09919 8.51507 3.19369 8.73625 3.19481Z" fill="#979797"/>
</svg>
