<svg width="15" height="16" viewBox="0 0 15 16" fill="none" xmlns="http://www.w3.org/2000/svg">
<path d="M2.33218 3.82393C2.49814 3.95055 2.73521 3.91868 2.86188 3.75282C3.97657 2.29237 5.66723 1.45484 7.50041 1.45484C9.33359 1.45484 11.0242 2.29242 12.1389 3.75282C12.2133 3.85025 12.3258 3.90141 12.4397 3.90141C12.5196 3.90141 12.6002 3.87616 12.6686 3.82393C12.8345 3.69727 12.8663 3.46015 12.7398 3.29424C11.4808 1.64494 9.57117 0.699036 7.50041 0.699036C5.42965 0.699036 3.52001 1.64494 2.26112 3.29424C2.1345 3.46015 2.16632 3.69727 2.33218 3.82393Z" fill="#979797"/>
<path d="M11.5166 5.83974C11.5166 6.49049 12.0461 7.01999 12.6968 7.01999C13.3476 7.01999 13.8771 6.49049 13.8771 5.83974C13.8771 5.18898 13.3476 4.65948 12.6968 4.65948C12.0461 4.65948 11.5166 5.18893 11.5166 5.83974Z" fill="#979797"/>
<path d="M13.9061 7.41166C13.9034 7.41075 13.606 7.31949 13.606 7.31949C13.4984 7.28661 13.3814 7.30686 13.2912 7.37434L12.6983 7.81833L12.1053 7.37434C12.0151 7.30681 11.8981 7.28656 11.7905 7.31949C11.7905 7.31949 11.4931 7.41075 11.4904 7.41166C11.0119 7.57121 10.6904 8.01722 10.6904 8.52156V10.3059C10.6904 10.3747 10.7105 10.442 10.7484 10.4995L11.3468 11.4101V13.8017C11.3468 13.9965 11.5047 14.1543 11.6995 14.1543H13.6971C13.8919 14.1543 14.0498 13.9965 14.0498 13.8017V11.4101L14.6482 10.4995C14.686 10.442 14.7061 10.3746 14.7061 10.3059V8.52156C14.7061 8.01722 14.3846 7.57121 13.9061 7.41166Z" fill="#979797"/>
<path d="M3.21571 7.41166C3.21298 7.41075 2.91561 7.31949 2.91561 7.31949C2.80793 7.28661 2.69096 7.30686 2.60081 7.37434L2.00783 7.81833L1.41485 7.37434C1.32465 7.30681 1.20763 7.28656 1.10005 7.31949C1.10005 7.31949 0.802677 7.41075 0.79995 7.41166C0.321465 7.57121 0 8.01722 0 8.52156V10.3059C0 10.3747 0.0201008 10.442 0.0579796 10.4995L0.656364 11.4101V13.8017C0.656364 13.9965 0.814243 14.1543 1.00904 14.1543H3.00667C3.20147 14.1543 3.35934 13.9965 3.35934 13.8017V11.4101L3.95773 10.4995C3.99556 10.442 4.01571 10.3746 4.01571 10.3059V8.52156C4.01571 8.01722 3.69419 7.57121 3.21571 7.41166Z" fill="#979797"/>
<path d="M2.1803 7.01999C2.83106 7.01999 3.36056 6.49049 3.36056 5.83974C3.36056 5.18898 2.83106 4.65948 2.1803 4.65948C1.52955 4.65948 1 5.18893 1 5.83974C1 6.49055 1.5295 7.01999 2.1803 7.01999Z" fill="#979797"/>
<path d="M9.02316 4.17644C9.02316 3.33704 8.34023 2.65411 7.50084 2.65411C6.66144 2.65411 5.97852 3.33704 5.97852 4.17644C5.97852 5.01588 6.66144 5.69876 7.50084 5.69876C8.34023 5.69876 9.02316 5.01588 9.02316 4.17644Z" fill="#979797"/>
<path d="M9.1722 6.43636L9.16968 6.43555L8.73518 6.30221C8.66665 6.28115 8.59341 6.31742 8.56877 6.38504L7.65513 8.89186C7.6024 9.03646 7.39791 9.03646 7.34518 8.89186L6.43154 6.38504C6.41164 6.33045 6.36013 6.2962 6.30487 6.2962C6.29179 6.2962 5.83113 6.43535 5.83113 6.43535C5.27608 6.6203 4.90527 7.13484 4.90527 7.71666V10.3685C4.90527 10.3948 4.913 10.4206 4.92744 10.4426L5.88078 11.8933V15.564C5.88078 15.6385 5.94118 15.6989 6.01573 15.6989H8.98458C9.05912 15.6989 9.11952 15.6385 9.11952 15.564V11.8933L10.0729 10.4426C10.0873 10.4206 10.095 10.3948 10.095 10.3685V7.70969C10.095 7.1304 9.72271 6.61671 9.1722 6.43636Z" fill="#979797"/>
<path d="M7.85706 6.38341C7.81933 6.3423 7.76413 6.32159 7.70827 6.32159H7.29186C7.23605 6.32159 7.18085 6.3423 7.14307 6.38341C7.08463 6.4471 7.07615 6.53907 7.11761 6.61093L7.34019 6.94648L7.236 7.82551L7.4412 8.37136C7.4612 8.42626 7.53883 8.42626 7.55888 8.37136L7.76408 7.82551L7.65989 6.94648L7.88247 6.61093C7.92398 6.53907 7.9155 6.4471 7.85706 6.38341Z" fill="#979797"/>
</svg>
