<svg width="13" height="15" viewBox="0 0 13 15" fill="none" xmlns="http://www.w3.org/2000/svg">
<path d="M2.85916 8.80762L2.1072 8.05566H0V15.0001H9.44444V8.889H3.05556C2.98191 8.889 2.91124 8.8597 2.85916 8.80762ZM2.77778 13.889H1.11111V13.3334H2.77778V13.889ZM3.88889 13.889H3.33333V13.3334H3.88889V13.889ZM3.88889 12.7779H1.11111V12.2223H3.88889V12.7779Z" fill="#979797"/>
<path d="M5.97754 7.07752L6.66615 8.11119L7.2742 7.19918C6.90175 6.91137 6.39665 6.8643 5.97754 7.07833V7.07752Z" fill="#979797"/>
<path d="M5.27832 8.19407V8.33296H6.14827L5.54606 7.43018C5.37367 7.6476 5.27941 7.91656 5.27832 8.19407Z" fill="#979797"/>
<path d="M7.77745 8.19475C7.77623 8.00364 7.73066 7.81551 7.6444 7.64502L7.18555 8.33363H7.77745V8.19475Z" fill="#979797"/>
<path d="M2.41873 12.5813L3.17068 13.3332H3.61122V11.9443H0.555664V12.4999H2.22233C2.29598 12.4999 2.36664 12.5292 2.41873 12.5813Z" fill="#979797"/>
<path d="M4.16699 0V8.33333H4.72255V8.19444C4.72255 7.19727 5.53092 6.38889 6.5281 6.38889C7.52528 6.38889 8.33366 7.19727 8.33366 8.19444V8.33333H9.72254C9.87595 8.33333 10.0003 8.45771 10.0003 8.61111V10.5556H12.2225V0H4.16699ZM11.1114 7.77778H8.88921V7.22222H11.1114V7.77778ZM11.1114 6.66667H9.72254V6.11111H11.1114V6.66667ZM11.1114 5.55556H8.61143V5H11.1114V5.55556ZM11.1114 4.44444H9.72254V3.88889H11.1114V4.44444ZM11.1114 2.77778H10.5559V2.05946L7.69672 4.91862C7.64477 4.97084 7.57397 5.00014 7.50032 5H7.48473C7.40592 4.99566 7.33268 4.95795 7.28345 4.89638L6.3667 3.74973L5.19727 4.91916L4.80447 4.52637L6.19336 3.13748C6.24937 3.08187 6.32601 3.05216 6.40481 3.05556C6.48361 3.0599 6.55686 3.0976 6.60609 3.15918L7.52284 4.30583L10.1617 1.66694H9.44477V1.11111H10.8337C10.9871 1.11111 11.1114 1.23549 11.1114 1.38889V2.77778Z" fill="#979797"/>
</svg>
