<svg width="12" height="13" viewBox="0 0 12 13" fill="none" xmlns="http://www.w3.org/2000/svg">
<g clip-path="url(#clip0)">
<path d="M3.52715 9.01853C6.55943 9.01853 9.01729 6.56028 9.01729 3.52801C9.01729 2.18438 8.53317 0.95526 7.73207 0.000854492C10.2072 0.795424 11.9996 3.11382 11.9996 5.85293C11.9996 9.24829 9.24744 12.0005 5.85207 12.0005C3.11296 12.0005 0.79457 10.2081 0 7.73292C0.954406 8.53441 2.18391 9.01853 3.52715 9.01853Z" fill="#979797"/>
<path d="M9.65061 1.02716C10.4728 2.07186 10.967 3.38705 10.967 4.82019C10.967 8.21556 8.21477 10.9677 4.8194 10.9677C3.38626 10.9677 2.07107 10.4736 1.02637 9.65139C2.15137 11.0795 3.89228 11.9998 5.85142 11.9998C9.24679 11.9998 11.999 9.24758 11.999 5.85221C11.999 3.89307 11.0788 2.15254 9.65061 1.02716Z" fill="#F2F2F2"/>
<path d="M3.07619 2.40009L3.70938 3.68377L5.12562 3.88933L4.10091 4.8883L4.34258 6.29878L3.07619 5.63292L1.80941 6.29878L2.05109 4.8883L1.02637 3.88933L2.44261 3.68377L3.07619 2.40009Z" fill="#BDBDBD"/>
<path d="M6.64831 1.98938L6.97644 2.65485L7.71068 2.76128L7.1793 3.27921L7.30494 4.01L6.64831 3.66497L5.99168 4.01L6.11732 3.27921L5.58594 2.76128L6.32019 2.65485L6.64831 1.98938Z" fill="#BDBDBD"/>
</g>
<defs>
<clipPath id="clip0">
<rect width="12" height="12" fill="white"/>
</clipPath>
</defs>
</svg>
