<svg width="15" height="15" viewBox="0 0 15 15" fill="none" xmlns="http://www.w3.org/2000/svg">
<path d="M3.50529 2.74092L9.48507 1.1087L9.1684 0.468606C8.96121 0.0525477 8.45588 -0.119266 8.03982 0.0879211L2.68665 2.74092H3.50529Z" fill="#979797"/>
<path d="M11.3414 1.15582C11.2673 1.15582 11.1932 1.16593 11.1191 1.18614L9.71425 1.57019L5.42395 2.74088H10.2937H12.4161L12.1533 1.77738C12.0522 1.40175 11.712 1.15582 11.3414 1.15582Z" fill="#979797"/>
<path d="M13.2937 3.33038H13.1016H12.8405H12.5794H10.5867H3.26446H2.30432H1.49579H1.34587H0.843908C0.577765 3.33038 0.340258 3.45335 0.185289 3.64706C0.114542 3.73634 0.0606401 3.83909 0.03032 3.95194C0.0117911 4.02269 0 4.09681 0 4.17261V4.27367V5.23381V13.5567C0 14.0216 0.377316 14.3989 0.842224 14.3989H13.292C13.7569 14.3989 14.1342 14.0216 14.1342 13.5567V11.2069H9.13644C8.34644 11.2069 7.70466 10.5651 7.70466 9.77508V9.0036V8.74251V8.48142V7.90197C7.70466 7.51455 7.85961 7.16252 8.11061 6.9048C8.33296 6.67569 8.63111 6.52073 8.96463 6.48198C9.02021 6.47526 9.07749 6.47188 9.13476 6.47188H13.4335H13.6946H13.9556H14.1342V4.17261C14.1359 3.7077 13.7586 3.33038 13.2937 3.33038Z" fill="#979797"/>
<path d="M14.7251 7.27729C14.6409 7.1998 14.5415 7.14085 14.4304 7.1021C14.3444 7.07349 14.2535 7.05664 14.1575 7.05664H14.1356H14.1187H13.8577H12.916H9.13617C8.67124 7.05664 8.29395 7.43394 8.29395 7.89886V8.31827V8.57936V8.84045V9.77364C8.29395 10.2385 8.67124 10.6159 9.13617 10.6159H14.1356H14.1575C14.2535 10.6159 14.3445 10.599 14.4304 10.5704C14.5415 10.5333 14.6409 10.4727 14.7251 10.3952C14.8936 10.2419 14.9997 10.0196 14.9997 9.77365V7.89886C14.9997 7.65292 14.8936 7.43055 14.7251 7.27729ZM10.8947 9.00384C10.8947 9.2363 10.7061 9.42496 10.4736 9.42496H10.194C9.96154 9.42496 9.77288 9.2363 9.77288 9.00384V8.72423C9.77288 8.58947 9.83521 8.46986 9.93459 8.39406C10.007 8.33847 10.0963 8.30311 10.194 8.30311H10.2647H10.4736C10.7061 8.30311 10.8947 8.49176 10.8947 8.72423V9.00384Z" fill="#979797"/>
</svg>
