<svg width="10" height="16" viewBox="0 0 10 16" fill="none" xmlns="http://www.w3.org/2000/svg">
<path d="M7.93229 2.9316C7.93229 1.31514 6.61714 0 5.00069 0C3.38424 0 2.06909 1.31514 2.06909 2.9316C2.06909 4.54815 3.38424 5.8632 5.00069 5.8632C6.61714 5.8632 7.93229 4.54815 7.93229 2.9316Z" fill="#D6B87A"/>
<path d="M8.21212 7.28567L8.21698 7.28723C9.27711 7.63454 9.99401 8.62377 9.9941 9.73934V14.8595C9.9941 14.9101 9.95141 15.0022 9.95141 15.0022H0.0426965L0 14.8595V9.75276C0 8.63233 0.71408 7.64145 1.78296 7.28528C1.78296 7.28528 2.67007 7.01733 2.69526 7.01733C2.80166 7.01733 2.90086 7.08328 2.93918 7.18841L4.69861 12.0159C4.80015 12.2943 5.19395 12.2943 5.29549 12.0159L7.05492 7.18841C7.10238 7.05818 7.24341 6.98835 7.37539 7.02891L8.21212 7.28567Z" fill="#D6B87A"/>
<path d="M5.68024 7.18032C5.60758 7.10116 5.50128 7.06128 5.39371 7.06128H4.5918C4.48433 7.06128 4.37803 7.10116 4.30528 7.18032C4.19275 7.30297 4.17641 7.48008 4.25626 7.61848L4.68488 8.26467L4.48423 9.95747L4.8794 11.0087C4.91791 11.1144 5.0674 11.1144 5.10602 11.0087L5.50118 9.95747L5.30053 8.26467L5.72916 7.61848C5.80911 7.48008 5.79276 7.30297 5.68024 7.18032Z" fill="#D6B87A"/>
</svg>
