<svg width="15" height="15" viewBox="0 0 15 15" fill="none" xmlns="http://www.w3.org/2000/svg">
<path d="M14.2993 13.005V15H0.701172V13.0045C0.701172 12.0624 1.51337 10.9026 2.50557 10.4314L4.71341 9.38243L6.24604 12.5763L7.03075 10.4487C7.18548 10.4779 7.33887 10.5169 7.50025 10.5169C7.66162 10.5169 7.81458 10.4779 7.96975 10.4487L8.71456 12.4716L10.217 9.34696L12.4963 10.4309C13.4871 10.9022 14.2993 12.062 14.2993 13.005ZM2.70685 6.01259V4.57173C2.70685 4.32745 2.83409 4.11332 3.02605 3.99007C3.28363 1.74765 5.19089 0 7.50114 0C9.81139 0 11.7191 1.74765 11.9771 3.99007C12.1686 4.11332 12.2959 4.32745 12.2959 4.57173V6.01259C12.2959 6.39519 11.986 6.70553 11.6029 6.70553C11.2199 6.70553 10.91 6.39519 10.91 6.01259V5.70979C10.5349 7.5962 9.15391 9.3474 7.50158 9.3474C5.84925 9.3474 4.46824 7.5962 4.09317 5.70979V6.01259C4.09317 6.32293 3.88702 6.58273 3.6055 6.67095C3.88126 7.60951 4.49307 8.42038 5.33808 8.95239C5.49413 8.90096 5.69097 8.91071 5.88205 9.01002C6.18885 9.16962 6.34535 9.47996 6.22919 9.70163C6.11348 9.9233 5.77122 9.97296 5.46265 9.81291C5.23744 9.69543 5.09468 9.49814 5.07961 9.31371C4.11179 8.6948 3.4255 7.74738 3.14221 6.65455C2.88773 6.55258 2.70685 6.30431 2.70685 6.01259ZM3.49821 3.82825C3.51905 3.82958 3.539 3.83002 3.55895 3.83756C3.60905 3.85618 3.6454 3.89209 3.67067 3.93421C3.82096 3.99805 3.94066 4.11465 4.01426 4.25918C4.21864 2.3435 5.6994 1.33002 7.50025 1.33002C9.3011 1.33002 10.7819 2.3435 10.9862 4.25918C11.0878 4.06012 11.2806 3.9178 11.5116 3.8881C11.2119 1.9405 9.52986 0.442898 7.50025 0.442898C5.49147 0.443341 3.82274 1.91036 3.49821 3.82825Z" fill="#979797"/>
</svg>
