<svg width="31" height="31" viewBox="0 0 31 31" fill="none" xmlns="http://www.w3.org/2000/svg">
<path d="M4.60156 16.3477C4.83405 16.3477 5.06631 16.259 5.24369 16.0816L11.8672 9.45808L14.8579 12.4488C15.2126 12.8035 15.7874 12.8035 16.1421 12.4488L25.4902 3.10066V4.54102C25.4902 5.04289 25.8966 5.44922 26.3984 5.44922C26.9003 5.44922 27.3066 5.04289 27.3066 4.54102V0.908203C27.3066 0.878403 27.305 0.848366 27.3021 0.818802C27.3007 0.803902 27.2979 0.789474 27.2958 0.775047C27.2936 0.760384 27.292 0.74572 27.2891 0.731293C27.2858 0.713554 27.2809 0.696526 27.2766 0.67926C27.2735 0.668144 27.2712 0.656792 27.2679 0.645676C27.2624 0.627464 27.2558 0.609962 27.2492 0.592224C27.2454 0.582291 27.2423 0.572121 27.2383 0.562424C27.2307 0.544212 27.222 0.526474 27.2135 0.508972C27.2092 0.499985 27.2052 0.490997 27.2007 0.482246C27.1903 0.462852 27.1789 0.444405 27.1673 0.425957C27.1633 0.419334 27.1598 0.412712 27.1555 0.406326C27.1392 0.381966 27.1219 0.358315 27.1035 0.335609C27.1032 0.335373 27.1032 0.335136 27.103 0.3349C27.0637 0.286888 27.0198 0.242897 26.9717 0.203636C26.9715 0.2034 26.9713 0.2034 26.971 0.203163C26.9483 0.184715 26.9247 0.16745 26.9003 0.151131C26.8939 0.146873 26.8873 0.143326 26.8807 0.139305C26.8622 0.127716 26.8438 0.116364 26.8244 0.105957C26.8156 0.101227 26.8067 0.0974426 26.7977 0.0931854C26.7802 0.0844345 26.7624 0.0759201 26.7442 0.0683517C26.7345 0.0643311 26.7243 0.0612564 26.7144 0.0574722C26.6967 0.0508499 26.6792 0.0442276 26.661 0.0387878C26.6498 0.0354767 26.6385 0.0331116 26.6274 0.0300369C26.6101 0.0257797 26.5931 0.020813 26.5753 0.0175018C26.5609 0.0146637 26.5463 0.0130081 26.5316 0.0108795C26.5172 0.0087509 26.5027 0.00591278 26.4878 0.00449372C26.4583 0.00165558 26.4282 0 26.3984 0H22.7656C22.2637 0 21.8574 0.406326 21.8574 0.908203C21.8574 1.41008 22.2637 1.81641 22.7656 1.81641H24.206L15.5 10.5224L12.5093 7.5317C12.1545 7.17693 11.5798 7.17693 11.2251 7.5317L3.95943 14.7973C3.60467 15.1521 3.60467 15.7268 3.95943 16.0816C4.13682 16.259 4.36907 16.3477 4.60156 16.3477Z" fill="#D6B87A"/>
<path d="M0 30.0918C0 30.5937 0.406326 31 0.908203 31H8.17383C8.6757 31 9.08203 30.5937 9.08203 30.0918V28.8203H0V30.0918Z" fill="#D6B87A"/>
<path d="M8.17383 24.8242H0.908203C0.406326 24.8242 0 25.2305 0 25.7324V27.0039H9.08203V25.7324C9.08203 25.2305 8.6757 24.8242 8.17383 24.8242Z" fill="#D6B87A"/>
<path d="M10.959 30.0918C10.959 30.5937 11.3653 31 11.8672 31H19.1328C19.6347 31 20.041 30.5937 20.041 30.0918V28.8203H10.959V30.0918Z" fill="#D6B87A"/>
<path d="M21.918 24.8242H31V27.0039H21.918V24.8242Z" fill="#D6B87A"/>
<path d="M30.0918 12.8359H22.8262C22.3243 12.8359 21.918 13.2423 21.918 13.7441V15.0156H31V13.7441C31 13.2423 30.5937 12.8359 30.0918 12.8359Z" fill="#D6B87A"/>
<path d="M21.918 16.832H31V19.0117H21.918V16.832Z" fill="#D6B87A"/>
<path d="M21.918 20.8281H31V23.0078H21.918V20.8281Z" fill="#D6B87A"/>
<path d="M21.918 30.0918C21.918 30.5937 22.3243 31 22.8262 31H30.0918C30.5937 31 31 30.5937 31 30.0918V28.8203H21.918V30.0918Z" fill="#D6B87A"/>
<path d="M10.959 24.8242H20.041V27.0039H10.959V24.8242Z" fill="#D6B87A"/>
<path d="M19.1328 20.8281H11.8672C11.3653 20.8281 10.959 21.2345 10.959 21.7363V23.0078H20.041V21.7363C20.041 21.2345 19.6347 20.8281 19.1328 20.8281Z" fill="#D6B87A"/>
</svg>
