<svg width="22" height="22" viewBox="0 0 22 22" fill="none" xmlns="http://www.w3.org/2000/svg">
<path d="M12.857 0.003121L10.9119 0C8.72658 0 7.31434 1.44892 7.31434 3.69152V5.39356H5.35859C5.18959 5.39356 5.05273 5.53057 5.05273 5.69957V8.16563C5.05273 8.33463 5.18974 8.47149 5.35859 8.47149H7.31434V14.6941C7.31434 14.8631 7.4512 15 7.6202 15H10.1719C10.3409 15 10.4778 14.863 10.4778 14.6941V8.47149H12.7645C12.9335 8.47149 13.0703 8.33463 13.0703 8.16563L13.0713 5.69957C13.0713 5.61843 13.039 5.54071 12.9817 5.48329C12.9244 5.42586 12.8464 5.39356 12.7653 5.39356H10.4778V3.95072C10.4778 3.25723 10.643 2.90518 11.5464 2.90518L12.8567 2.90472C13.0256 2.90472 13.1624 2.7677 13.1624 2.59886V0.308979C13.1624 0.140289 13.0257 0.0034331 12.857 0.003121Z" fill="#3A549E"/>
</svg>
