<svg width="15" height="16" viewBox="0 0 15 16" fill="none" xmlns="http://www.w3.org/2000/svg">
<path d="M15.0001 7.82693C15.0007 7.30547 14.9566 6.78492 14.8683 6.271H7.65186V9.21814H11.7851C11.7005 9.68884 11.5215 10.1375 11.2588 10.5372C10.9962 10.9368 10.6553 11.2792 10.2568 11.5435V13.4566H12.7235C14.1679 12.1249 15.0001 10.1555 15.0001 7.82693Z" fill="#4285F4"/>
<path d="M7.65193 15.3048C9.71695 15.3048 11.4557 14.6267 12.7236 13.4577L10.2569 11.5446C9.57029 12.0101 8.68604 12.2758 7.65193 12.2758C5.65599 12.2758 3.96189 10.9303 3.3561 9.11719H0.814941V11.0887C1.45184 12.356 2.42846 13.4215 3.63576 14.166C4.84306 14.9105 6.23353 15.3047 7.65193 15.3048Z" fill="#34A853"/>
<path d="M3.35597 9.11718C3.03571 8.16709 3.03571 7.1382 3.35597 6.18811V4.21661H0.814819C0.279036 5.28277 0 6.45944 0 7.65265C0 8.84585 0.279036 10.0225 0.814819 11.0887L3.35597 9.11718Z" fill="#FBBC04"/>
<path d="M7.65193 3.02948C8.7432 3.01165 9.79766 3.42397 10.5874 4.1773L12.7714 1.99325C11.3865 0.692465 9.55181 -0.0216882 7.65193 0.000502053C6.23353 0.000566698 4.84306 0.394859 3.63576 1.13936C2.42846 1.88386 1.45184 2.94926 0.814941 4.21663L3.3561 6.18812C3.96189 4.37499 5.65599 3.02948 7.65193 3.02948Z" fill="#EA4335"/>
</svg>
