<svg width="12" height="13" viewBox="0 0 12 13" fill="none" xmlns="http://www.w3.org/2000/svg">
<path d="M11.9038 8.06894L10.6202 6.93662L11.8584 5.7554C11.9039 5.71199 11.9227 5.6478 11.9076 5.58691C11.8926 5.52604 11.846 5.4778 11.7855 5.46032L10.1375 4.98473L10.7466 3.38966C10.769 3.33107 10.7582 3.26507 10.7184 3.21648C10.6785 3.16792 10.6156 3.14418 10.5534 3.15421L8.85948 3.4273L8.72171 1.72666C8.71665 1.66417 8.67845 1.60912 8.62152 1.58226C8.56459 1.5554 8.49751 1.56077 8.44564 1.59634L7.03316 2.5653L6.17513 1.0877C6.14361 1.03342 6.08537 1 6.02232 1C5.95928 1 5.90106 1.03342 5.86953 1.0877L4.88462 2.78383L3.18095 1.80055C3.12641 1.76908 3.05914 1.76894 3.00451 1.80013C2.94983 1.83133 2.91608 1.88917 2.91592 1.95184L2.91179 3.65798L1.20167 3.51702C1.13898 3.51187 1.07804 3.54039 1.04214 3.59188C1.00621 3.64337 1.00063 3.71003 1.02756 3.7667L1.75979 5.30971L0.154018 5.91161C0.0950493 5.93371 0.0524165 5.98544 0.0421508 6.04729C0.0318852 6.10912 0.0556274 6.17169 0.104401 6.21142L1.43141 7.29311L0.240479 8.52147C0.196745 8.56659 0.180502 8.63148 0.197916 8.69172C0.215354 8.75195 0.263776 8.79836 0.324924 8.81345L1.99028 9.2248L1.4443 10.8422C1.42424 10.9017 1.4376 10.9672 1.47931 11.0142C1.52106 11.0612 1.58483 11.0825 1.64659 11.07L3.32846 10.7315L3.53286 12.4255C3.54034 12.4877 3.5807 12.5413 3.63864 12.5659C3.69662 12.5906 3.76339 12.5826 3.81383 12.545L5.18717 11.5221L6.10253 12.9181C6.13492 12.9692 6.19133 13 6.25175 13C6.25405 13 6.25635 12.9999 6.25867 12.9998C6.32164 12.9974 6.37855 12.9617 6.40792 12.9063L7.2073 11.4437L8.65665 12.3571C8.70992 12.3907 8.77705 12.3934 8.83295 12.3644C8.88878 12.3353 8.9248 12.2788 8.9274 12.2162L8.99844 10.5115L10.7017 10.7187C10.7642 10.7263 10.8262 10.7001 10.8641 10.6501C10.902 10.6 10.9102 10.5336 10.8855 10.4759L10.2144 8.9057L11.8425 8.36657C11.9023 8.34677 11.9469 8.29675 11.9596 8.23534C11.9722 8.17398 11.951 8.11054 11.9038 8.06894Z" fill="#232324"/>
<path d="M5.96097 10.6009C7.96821 10.6009 9.5954 8.97495 9.5954 6.96926C9.5954 4.96358 7.96821 3.33765 5.96097 3.33765C3.95373 3.33765 2.32654 4.96358 2.32654 6.96926C2.32654 8.97495 3.95373 10.6009 5.96097 10.6009Z" fill="#979797"/>
<path d="M5.95987 3.33765C5.86884 3.33765 5.77865 3.34109 5.68933 3.34768C7.57019 3.48598 9.0532 5.05451 9.0532 6.96926C9.0532 8.88399 7.57019 10.4525 5.68933 10.5909C5.77865 10.5974 5.86886 10.6009 5.95987 10.6009C7.96708 10.6009 9.59428 8.97495 9.59428 6.96929C9.59428 4.96358 7.96708 3.33765 5.95987 3.33765Z" fill="#2D2D32"/>
</svg>
