<svg width="89" height="89" viewBox="0 0 89 89" fill="none" xmlns="http://www.w3.org/2000/svg">
<rect width="89" height="89" fill="#CBCBCB"/>
<path d="M26.0634 33.6892C27.0645 32.6883 28.2721 32.1877 29.6869 32.1877H34.1713L35.1921 29.4652C35.4458 28.8114 35.9094 28.2474 36.5837 27.7734C37.2578 27.2996 37.9484 27.0625 38.6558 27.0625H48.9061C49.6135 27.0625 50.3042 27.2996 50.9783 27.7734C51.6524 28.2474 52.116 28.8114 52.3696 29.4652L53.3906 32.1877H57.875C59.2899 32.1877 60.4975 32.6883 61.4987 33.6892C62.4996 34.6902 63 35.8979 63 37.3128V55.2504C63 56.6653 62.4996 57.8732 61.4987 58.8739C60.4975 59.875 59.2899 60.3756 57.875 60.3756H29.6874C28.2726 60.3756 27.0651 59.875 26.0639 58.8739C25.0631 57.8732 24.5625 56.6653 24.5625 55.2504V37.3128C24.5622 35.8979 25.0628 34.6902 26.0634 33.6892ZM37.4449 52.6181C39.2 54.3732 41.3119 55.2509 43.7811 55.2509C46.2504 55.2509 48.3622 54.3732 50.1174 52.6181C51.8725 50.8632 52.75 48.7509 52.75 46.2821C52.75 43.8126 51.8723 41.701 50.1174 39.9458C48.3624 38.1906 46.2504 37.3132 43.7811 37.3132C41.3119 37.3132 39.2 38.1908 37.4449 39.9458C35.6898 41.7007 34.8123 43.8126 34.8123 46.2821C34.8123 48.7509 35.6898 50.863 37.4449 52.6181Z" fill="#232324"/>
<path d="M43.781 40.5162C45.3693 40.5162 46.7273 41.0801 47.8552 42.2081C48.983 43.3359 49.5469 44.6937 49.5469 46.2824C49.5469 47.8704 48.983 49.2284 47.8552 50.3562C46.7273 51.4838 45.3694 52.0477 43.781 52.0477C42.1929 52.0477 40.8348 51.4838 39.707 50.3562C38.5791 49.2284 38.0152 47.8704 38.0152 46.2824C38.0152 44.6938 38.5791 43.336 39.707 42.2081C40.8347 41.0802 42.1929 40.5162 43.781 40.5162Z" fill="#232324"/>
</svg>
