<svg width="31" height="31" viewBox="0 0 31 31" fill="none" xmlns="http://www.w3.org/2000/svg">
<path d="M0.909029 12.7754H5.51054L5.51054 30.0917C5.51054 30.5937 5.91675 30.9999 6.41875 30.9999L24.5827 30.9999C25.0847 30.9999 25.4909 30.5937 25.4909 30.0917L25.4909 12.7754H30.0925C30.9624 12.7754 31.3337 11.6618 30.6371 11.1408L16.0454 0.181822C15.7254 -0.0590954 15.2802 -0.0619411 14.9562 0.181822L0.364531 11.1408C-0.332123 11.6618 0.0391502 12.7754 0.909029 12.7754ZM21.8582 22.7655C21.8582 24.268 20.636 25.4902 19.1336 25.4902C17.6311 25.4902 16.4089 24.268 16.4089 22.7655C16.4089 21.2631 17.6311 20.0409 19.1336 20.0409C20.636 20.0409 21.8582 21.2631 21.8582 22.7655ZM18.3779 13.1797C18.6519 12.7682 19.213 12.6466 19.6374 12.9279C20.0551 13.2064 20.1678 13.7695 19.8892 14.1873L12.6237 25.0857C12.3469 25.5034 11.7838 25.6161 11.3642 25.3376C10.9465 25.0591 10.8338 24.4959 11.1123 24.0781L18.3779 13.1797ZM11.868 12.7754C13.3704 12.7754 14.5926 13.9976 14.5926 15.5C14.5926 17.0024 13.3704 18.2246 11.868 18.2246C10.3656 18.2246 9.14336 17.0024 9.14336 15.5C9.14336 13.9976 10.3656 12.7754 11.868 12.7754Z" fill="#D6B87A"/>
</svg>
