<svg width="31" height="32" viewBox="0 0 31 32" fill="none" xmlns="http://www.w3.org/2000/svg">
<path d="M5.30741 6.83058C5.65076 7.10735 6.14124 7.03769 6.4033 6.67515C8.7095 3.4828 12.2073 1.65209 16 1.65209C19.7927 1.65209 23.2905 3.48291 25.5967 6.67515C25.7506 6.8881 25.9833 6.99993 26.2188 6.99993C26.3841 6.99993 26.551 6.94474 26.6926 6.83058C27.0357 6.55371 27.1015 6.0354 26.8397 5.67274C24.2351 2.06762 20.2842 0 16 0C11.7158 0 7.76491 2.06762 5.16039 5.67274C4.89843 6.0354 4.96426 6.55371 5.30741 6.83058Z" fill="#D6B87A"/>
<path d="M24 11.5C24 12.8784 25.1216 14 26.5 14C27.8784 14 29 12.8784 29 11.5C29 10.1216 27.8784 9 26.5 9C25.1216 9 24 10.1215 24 11.5Z" fill="#D6B87A"/>
<path d="M29.207 14.22C29.2009 14.2181 28.5345 14.0316 28.5345 14.0316C28.2931 13.9644 28.031 14.0058 27.8289 14.1437L26.4999 15.0511L25.171 14.1437C24.9688 14.0057 24.7065 13.9643 24.4654 14.0316C24.4654 14.0316 23.799 14.2181 23.7928 14.22C22.7205 14.5461 22 15.4576 22 16.4883V20.1349C22 20.2755 22.045 20.4131 22.1299 20.5306L23.471 22.3917V27.2792C23.471 27.6773 23.8249 28 24.2615 28H28.7385C29.1751 28 29.529 27.6773 29.529 27.2792V22.3917L30.8701 20.5306C30.9548 20.413 31 20.2754 31 20.1349V16.4883C31 15.4576 30.2794 14.5461 29.207 14.22Z" fill="#D6B87A"/>
<path d="M6.40626 14.22C6.40083 14.2181 5.8084 14.0316 5.8084 14.0316C5.59389 13.9644 5.36087 14.0058 5.18127 14.1437L3.99995 15.0511L2.81863 14.1437C2.63893 14.0057 2.40581 13.9643 2.1915 14.0316C2.1915 14.0316 1.59908 14.2181 1.59364 14.22C0.640415 14.5461 0 15.4576 0 16.4883V20.1349C0 20.2755 0.0400443 20.4131 0.115506 20.5306L1.30759 22.3917V27.2792C1.30759 27.6773 1.62212 28 2.01019 28H5.98981C6.37789 28 6.69241 27.6773 6.69241 27.2792V22.3917L7.8845 20.5306C7.95986 20.413 8 20.2754 8 20.1349V16.4883C8 15.4576 7.35949 14.5461 6.40626 14.22Z" fill="#D6B87A"/>
<path d="M4.50005 14C5.87845 14 7 12.8784 7 11.5C7 10.1216 5.87845 9 4.50005 9C3.12165 9 2 10.1215 2 11.5C2 12.8785 3.12155 14 4.50005 14Z" fill="#D6B87A"/>
<path d="M19 7.5C19 5.57013 17.4299 4 15.5 4C13.5701 4 12 5.57013 12 7.5C12 9.42998 13.5701 11 15.5 11C17.4299 11 19 9.42998 19 7.5Z" fill="#D6B87A"/>
<path d="M19.044 12.2981L19.0387 12.2964L18.1177 12.0128C17.9724 11.968 17.8172 12.0451 17.765 12.189L15.8285 17.5211C15.7167 17.8286 15.2833 17.8286 15.1715 17.5211L13.235 12.189C13.1928 12.0728 13.0836 12 12.9665 12C12.9388 12 11.9624 12.296 11.9624 12.296C10.786 12.6894 10 13.7838 10 15.0214V20.6619C10 20.7179 10.0164 20.7727 10.047 20.8195L12.0676 23.9052V31.713C12.0676 31.8715 12.1957 32 12.3537 32H18.6463C18.8043 32 18.9324 31.8715 18.9324 31.713V23.9052L20.953 20.8195C20.9836 20.7727 21 20.7179 21 20.6619V15.0065C20.9999 13.7744 20.2108 12.6817 19.044 12.2981Z" fill="#D6B87A"/>
<path d="M16.8744 12.1183C16.782 12.0396 16.6468 12 16.51 12H15.49C15.3533 12 15.2181 12.0396 15.1256 12.1183C14.9825 12.2401 14.9617 12.416 15.0632 12.5535L15.6084 13.1954L15.3532 14.877L15.8558 15.9212C15.9048 16.0263 16.095 16.0263 16.1441 15.9212L16.6467 14.877L16.3915 13.1954L16.9367 12.5535C17.0384 12.416 17.0176 12.2401 16.8744 12.1183Z" fill="#D6B87A"/>
</svg>
