<svg width="32" height="32" viewBox="0 0 32 32" fill="none" xmlns="http://www.w3.org/2000/svg">
<path fill-rule="evenodd" clip-rule="evenodd" d="M16 32C24.8366 32 32 24.8366 32 16C32 7.16344 24.8366 0 16 0C7.16344 0 0 7.16344 0 16C0 24.8366 7.16344 32 16 32Z" fill="#CBCBCB"/>
<path d="M8.58573 11.586C8.9764 11.1954 9.44764 11.0001 9.99976 11.0001H11.7498L12.1481 9.93766C12.2471 9.68249 12.428 9.4624 12.6912 9.27742C12.9543 9.09252 13.2238 9 13.4998 9H17.4999C17.776 9 18.0456 9.09252 18.3086 9.27742C18.5717 9.4624 18.7526 9.68249 18.8516 9.93766L19.25 11.0001H21C21.5522 11.0001 22.0234 11.1954 22.4141 11.586C22.8047 11.9767 23 12.448 23 13.0001V20.0002C23 20.5523 22.8047 21.0237 22.4141 21.4142C22.0234 21.8049 21.5521 22.0002 21 22.0002H9.99995C9.44783 22.0002 8.97662 21.8049 8.58592 21.4142C8.19535 21.0237 8 20.5523 8 20.0002V13.0001C7.99989 12.448 8.19524 11.9767 8.58573 11.586ZM13.0273 18.9729C13.7122 19.6578 14.5363 20.0004 15.5 20.0004C16.4636 20.0004 17.2877 19.6578 17.9726 18.9729C18.6576 18.2881 19 17.4637 19 16.5003C19 15.5366 18.6575 14.7126 17.9726 14.0276C17.2878 13.3427 16.4636 13.0003 15.5 13.0003C14.5364 13.0003 13.7122 13.3428 13.0273 14.0276C12.3424 14.7125 11.9999 15.5366 11.9999 16.5003C11.9999 17.4637 12.3423 18.288 13.0273 18.9729Z" fill="#232324"/>
<path d="M15.5 14.2502C16.1198 14.2502 16.6498 14.4703 17.0899 14.9105C17.53 15.3506 17.7501 15.8805 17.7501 16.5004C17.7501 17.1202 17.53 17.6501 17.0899 18.0902C16.6498 18.5303 16.1198 18.7503 15.5 18.7503C14.8802 18.7503 14.3502 18.5303 13.9101 18.0902C13.47 17.6501 13.2499 17.1202 13.2499 16.5004C13.2499 15.8805 13.47 15.3506 13.9101 14.9105C14.3502 14.4703 14.8802 14.2502 15.5 14.2502Z" fill="#232324"/>
</svg>
