<svg width="32" height="31" viewBox="0 0 32 31" fill="none" xmlns="http://www.w3.org/2000/svg">
<path d="M21.933 10.7868L16.4673 4.30238C16.4201 4.24653 16.3495 4.21356 16.2753 4.21356C16.2004 4.21356 16.1298 4.24505 16.0828 4.30115L10.6171 10.7873C10.5567 10.8592 10.5442 10.9541 10.5854 11.0378C10.6265 11.1217 10.7139 11.1662 10.8094 11.1662H12.6512V16.6811C12.6512 16.8139 12.9008 16.9338 13.0377 16.9338H19.4812C19.6183 16.9338 19.597 16.8139 19.597 16.6811V11.1662H21.7408C21.8368 11.1662 21.9239 11.1217 21.9648 11.0378C22.0057 10.9541 21.994 10.8589 21.933 10.7868Z" fill="#D6B87A"/>
<path d="M31.5881 18.7411C31.5881 18.7409 31.6198 18.7409 31.6193 18.7406L27.491 14.843C26.9247 14.3191 26.2821 14.05 25.6533 14.05H21.2096C20.9355 14.05 20.7136 14.2653 20.7136 14.5307C20.7136 14.7962 20.9355 15.0115 21.2096 15.0115H25.6533C26.1561 15.0115 26.6014 15.3456 26.818 15.5461L29.8199 18.3757H20.4662C20.1932 18.3757 19.9717 18.5785 19.9702 18.8427C19.9618 20.8216 18.2932 22.4252 16.2513 22.4252C14.2094 22.4252 12.5408 20.8245 12.5322 18.8457C12.5309 18.5814 12.3092 18.3757 12.0359 18.3757H2.44269L5.44106 15.5493C5.66151 15.3456 6.10697 15.0115 6.60983 15.0115H11.292C11.5661 15.0115 11.7883 14.7962 11.7883 14.5307C11.7883 14.2653 11.5661 14.05 11.292 14.05H6.60958C5.98075 14.05 5.3222 14.3191 4.75204 14.8464L0.620957 18.6813C0.281399 18.9461 0 19.3409 0 19.7946V25.3218C0 26.1169 0.794927 26.7864 1.61576 26.7864H30.639C31.4596 26.7864 32 26.1169 32 25.3218V19.7946C32.0003 19.3786 31.8801 19.0041 31.5881 18.7411Z" fill="#D6B87A"/>
</svg>
